<?xml version="1.0" encoding="utf-8" ?>

<svg>
  <symbol id="question-mark" xmlns="http://www.w3.org/2000/svg" width="16" height="16" fill="currentColor" class="bi bi-question" viewBox="0 0 16 16">
	<path d="M5.255 5.786a.237.237 0 0 0 .241.247h.825c.138 0 .248-.113.266-.25.09-.656.54-1.134 1.342-1.134.686 0 1.314.343 1.314 1.168 0 .635-.374.927-.965 1.371-.673.489-1.206 1.06-1.168 1.987l.003.217a.25.25 0 0 0 .25.246h.811a.25.25 0 0 0 .25-.25v-.105c0-.718.273-.927 1.01-1.486.609-.463 1.244-.977 1.244-2.056 0-1.511-1.276-2.241-2.673-2.241-1.267 0-2.655.59-2.75 2.286zm1.557 5.763c0 .533.425.927 1.01.927.609 0 1.028-.394 1.028-.927 0-.552-.42-.94-1.029-.94-.584 0-1.009.388-1.009.94z"/>
  </symbol>
  <symbol id="icon-emoji-smile" xmlns="http://www.w3.org/2000/svg" width="16" height="16" fill="currentColor" class="bi bi-emoji-smile" viewBox="0 0 16 16">
    <path d="M8 15A7 7 0 1 1 8 1a7 7 0 0 1 0 14zm0 1A8 8 0 1 0 8 0a8 8 0 0 0 0 16z" />
    <path d="M4.285 9.567a.5.5 0 0 1 .683.183A3.498 3.498 0 0 0 8 11.5a3.498 3.498 0 0 0 3.032-1.75.5.5 0 1 1 .866.5A4.498 4.498 0 0 1 8 12.5a4.498 4.498 0 0 1-3.898-2.25.5.5 0 0 1 .183-.683zM7 6.5C7 7.328 6.552 8 6 8s-1-.672-1-1.5S5.448 5 6 5s1 .672 1 1.5zm4 0c0 .828-.448 1.5-1 1.5s-1-.672-1-1.5S9.448 5 10 5s1 .672 1 1.5z" />
  </symbol>
  <symbol id="icon-emoji-sad" xmlns="http://www.w3.org/2000/svg" width="16" height="16" fill="currentColor" class="bi bi-emoji-frown" viewBox="0 0 16 16">
    <path d="M8 15A7 7 0 1 1 8 1a7 7 0 0 1 0 14zm0 1A8 8 0 1 0 8 0a8 8 0 0 0 0 16z" />
    <path d="M4.285 12.433a.5.5 0 0 0 .683-.183A3.498 3.498 0 0 1 8 10.5c1.295 0 2.426.703 3.032 1.75a.5.5 0 0 0 .866-.5A4.498 4.498 0 0 0 8 9.5a4.5 4.5 0 0 0-3.898 2.25.5.5 0 0 0 .183.683zM7 6.5C7 7.328 6.552 8 6 8s-1-.672-1-1.5S5.448 5 6 5s1 .672 1 1.5zm4 0c0 .828-.448 1.5-1 1.5s-1-.672-1-1.5S9.448 5 10 5s1 .672 1 1.5z" />
  </symbol>
  <symbol id="icon-next" xmlns="http://www.w3.org/2000/svg" width="16" height="16" fill="currentColor" class="bi bi-bookmark-check" viewBox="0 0 16 16">
    <path fill-rule="evenodd" d="M10.854 5.146a.5.5 0 0 1 0 .708l-3 3a.5.5 0 0 1-.708 0l-1.5-1.5a.5.5 0 1 1 .708-.708L7.5 7.793l2.646-2.647a.5.5 0 0 1 .708 0z" />
    <path d="M2 2a2 2 0 0 1 2-2h8a2 2 0 0 1 2 2v13.5a.5.5 0 0 1-.777.416L8 13.101l-5.223 2.815A.5.5 0 0 1 2 15.5V2zm2-1a1 1 0 0 0-1 1v12.566l4.723-2.482a.5.5 0 0 1 .554 0L13 14.566V2a1 1 0 0 0-1-1H4z" />
  </symbol>
  <symbol id="icon-play" xmlns="http://www.w3.org/2000/svg" width="16" height="16" fill="currentColor" class="bi bi-play" viewBox="0 0 16 16">
    <path d="M10.804 8 5 4.633v6.734L10.804 8zm.792-.696a.802.802 0 0 1 0 1.392l-6.363 3.692C4.713 12.69 4 12.345 4 11.692V4.308c0-.653.713-.998 1.233-.696l6.363 3.692z" />
  </symbol>
  <symbol id="icon-edit" xmlns="http://www.w3.org/2000/svg" width="16" height="16" fill="currentColor" class="bi bi-pencil-square" viewBox="0 0 16 16">
    <path d="M15.502 1.94a.5.5 0 0 1 0 .706L14.459 3.69l-2-2L13.502.646a.5.5 0 0 1 .707 0l1.293 1.293zm-1.75 2.456-2-2L4.939 9.21a.5.5 0 0 0-.121.196l-.805 2.414a.25.25 0 0 0 .316.316l2.414-.805a.5.5 0 0 0 .196-.12l6.813-6.814z" />
    <path fill-rule="evenodd" d="M1 13.5A1.5 1.5 0 0 0 2.5 15h11a1.5 1.5 0 0 0 1.5-1.5v-6a.5.5 0 0 0-1 0v6a.5.5 0 0 1-.5.5h-11a.5.5 0 0 1-.5-.5v-11a.5.5 0 0 1 .5-.5H9a.5.5 0 0 0 0-1H2.5A1.5 1.5 0 0 0 1 2.5v11z" />
  </symbol>
  <symbol id="icon-delete" xmlns="http://www.w3.org/2000/svg" width="16" height="16" fill="currentColor" class="bi bi-trash3" viewBox="0 0 16 16">
    <path d="M6.5 1h3a.5.5 0 0 1 .5.5v1H6v-1a.5.5 0 0 1 .5-.5ZM11 2.5v-1A1.5 1.5 0 0 0 9.5 0h-3A1.5 1.5 0 0 0 5 1.5v1H2.506a.58.58 0 0 0-.01 0H1.5a.5.5 0 0 0 0 1h.538l.853 10.66A2 2 0 0 0 4.885 16h6.23a2 2 0 0 0 1.994-1.84l.853-10.66h.538a.5.5 0 0 0 0-1h-.995a.59.59 0 0 0-.01 0H11Zm1.958 1-.846 10.58a1 1 0 0 1-.997.92h-6.23a1 1 0 0 1-.997-.92L3.042 3.5h9.916Zm-7.487 1a.5.5 0 0 1 .528.47l.5 8.5a.5.5 0 0 1-.998.06L5 5.03a.5.5 0 0 1 .47-.53Zm5.058 0a.5.5 0 0 1 .47.53l-.5 8.5a.5.5 0 1 1-.998-.06l.5-8.5a.5.5 0 0 1 .528-.47ZM8 4.5a.5.5 0 0 1 .5.5v8.5a.5.5 0 0 1-1 0V5a.5.5 0 0 1 .5-.5Z" />
  </symbol>
  <symbol id="icon-back" xmlns="http://www.w3.org/2000/svg" width="16" height="16" fill="currentColor" class="bi bi-arrow-return-left" viewBox="0 0 16 16">
    <path fill-rule="evenodd" d="M14.5 1.5a.5.5 0 0 1 .5.5v4.8a2.5 2.5 0 0 1-2.5 2.5H2.707l3.347 3.346a.5.5 0 0 1-.708.708l-4.2-4.2a.5.5 0 0 1 0-.708l4-4a.5.5 0 1 1 .708.708L2.707 8.3H12.5A1.5 1.5 0 0 0 14 6.8V2a.5.5 0 0 1 .5-.5z"/>
  </symbol>
  <symbol id="icon-fav" xmlns="http://www.w3.org/2000/svg" width="16" height="16" fill="currentColor" class="bi bi-star" viewBox="0 0 16 16">
    <path d="M2.866 14.85c-.078.444.36.791.746.593l4.39-2.256 4.389 2.256c.386.198.824-.149.746-.592l-.83-4.73 3.522-3.356c.33-.314.16-.888-.282-.95l-4.898-.696L8.465.792a.513.513 0 0 0-.927 0L5.354 5.12l-4.898.696c-.441.062-.612.636-.283.95l3.523 3.356-.83 4.73zm4.905-2.767-3.686 1.894.694-3.957a.565.565 0 0 0-.163-.505L1.71 6.745l4.052-.576a.525.525 0 0 0 .393-.288L8 2.223l1.847 3.658a.525.525 0 0 0 .393.288l4.052.575-2.906 2.77a.565.565 0 0 0-.163.506l.694 3.957-3.686-1.894a.503.503 0 0 0-.461 0z"/>
  </symbol>
  <symbol id="icon-quiz" xmlns="http://www.w3.org/2000/svg" width="16" height="16" fill="currentColor" class="bi bi-file-earmark-plus" viewBox="0 0 16 16">
    <path d="M8 6.5a.5.5 0 0 1 .5.5v1.5H10a.5.5 0 0 1 0 1H8.5V11a.5.5 0 0 1-1 0V9.5H6a.5.5 0 0 1 0-1h1.5V7a.5.5 0 0 1 .5-.5z" />
    <path d="M14 4.5V14a2 2 0 0 1-2 2H4a2 2 0 0 1-2-2V2a2 2 0 0 1 2-2h5.5L14 4.5zm-3 0A1.5 1.5 0 0 1 9.5 3V1H4a1 1 0 0 0-1 1v12a1 1 0 0 0 1 1h8a1 1 0 0 0 1-1V4.5h-2z" />
  </symbol>
  <symbol id="icon-folder" xmlns="http://www.w3.org/2000/svg" width="16" height="16" fill="currentColor" class="bi bi-folder-plus" viewBox="0 0 16 16">
    <path d="m.5 3 .04.87a1.99 1.99 0 0 0-.342 1.311l.637 7A2 2 0 0 0 2.826 14H9v-1H2.826a1 1 0 0 1-.995-.91l-.637-7A1 1 0 0 1 2.19 4h11.62a1 1 0 0 1 .996 1.09L14.54 8h1.005l.256-2.819A2 2 0 0 0 13.81 3H9.828a2 2 0 0 1-1.414-.586l-.828-.828A2 2 0 0 0 6.172 1H2.5a2 2 0 0 0-2 2Zm5.672-1a1 1 0 0 1 .707.293L7.586 3H2.19c-.24 0-.47.042-.683.12L1.5 2.98a1 1 0 0 1 1-.98h3.672Z" />
    <path d="M13.5 9a.5.5 0 0 1 .5.5V11h1.5a.5.5 0 1 1 0 1H14v1.5a.5.5 0 1 1-1 0V12h-1.5a.5.5 0 0 1 0-1H13V9.5a.5.5 0 0 1 .5-.5Z" />
  </symbol>
  <symbol>
    <svg id="icon-heart" xmlns="http://www.w3.org/2000/svg" width="16" height="16" class="bi bi-heart-fill" viewBox="0 0 16 16">
      <path fill-rule="evenodd" d="M8 1.314C12.438-3.248 23.534 4.735 8 15-7.534 4.736 3.562-3.248 8 1.314"/>
    </svg>
  </symbol>
</svg>
